<svg viewBox="115 264 40 47" version="1.1" xmlns="http://www.w3.org/2000/svg" xmlns:xlink="http://www.w3.org/1999/xlink">
	<path d="M132.698286,264.688 C133.935625,264.688 135.135613,264.917331 136.298286,265.376 C137.460958,265.834669 138.495614,266.447996 139.402286,267.216 C140.308957,267.984004 141.039616,268.879995 141.594286,269.904 C142.148955,270.928005 142.426286,272.005328 142.426286,273.136 L142.234286,273.136 C142.127618,273.136 142.026286,273.098667 141.930286,273.024 C141.834285,272.949333 141.764953,272.816001 141.722286,272.624 C141.679619,272.047997 141.466288,271.344004 141.082286,270.512 C140.698284,269.679996 140.138289,268.880004 139.402286,268.112 C138.666282,267.343996 137.738291,266.688003 136.618286,266.144 C135.49828,265.599997 134.191626,265.328 132.698286,265.328 C131.247612,265.328 129.914292,265.551998 128.698286,266 C127.48228,266.448002 126.436957,267.071996 125.562286,267.872 C124.687615,268.672004 124.004955,269.631994 123.514286,270.752 C123.023617,271.872006 122.778286,273.11466 122.778286,274.48 C122.778286,276.46401 123.30628,278.367991 124.362286,280.192 C125.418291,282.016009 127.002275,283.930657 129.114286,285.936 L144.346286,300.528 C145.434291,298.906659 146.287616,297.232009 146.906286,295.504 C147.524955,293.775991 147.930285,292.144008 148.122286,290.608 C148.164953,290.437332 148.207619,290.309334 148.250286,290.224 C148.292953,290.138666 148.399618,290.096 148.570286,290.096 L148.826286,290.096 C148.762285,291.696008 148.399622,293.450657 147.738286,295.36 C147.076949,297.269343 146.116959,299.151991 144.858286,301.008 L154.266286,310 L153.754286,310 C153.562285,310 153.402286,309.989333 153.274286,309.968 C153.146285,309.946667 152.986287,309.850668 152.794286,309.68 L144.442286,301.584 C143.567615,302.800006 142.564958,303.946661 141.434286,305.024 C140.303613,306.101339 139.050293,307.050663 137.674286,307.872 C136.298279,308.693337 134.810294,309.338664 133.210286,309.808 C131.610278,310.277336 129.903628,310.512 128.090286,310.512 C126.575611,310.512 125.07696,310.261336 123.594286,309.76 C122.111612,309.258664 120.783625,308.522672 119.610286,307.552 C118.436946,306.581328 117.487623,305.38134 116.762286,303.952 C116.036949,302.52266 115.674286,300.869343 115.674286,298.992 C115.674286,297.391992 115.972949,295.866674 116.570286,294.416 C117.167622,292.965326 117.99428,291.642673 119.050286,290.448 C120.106291,289.253327 121.338279,288.202671 122.746286,287.296 C124.154293,286.389329 125.679611,285.669336 127.322286,285.136 C126.447615,284.218662 125.679622,283.338671 125.018286,282.496 C124.356949,281.653329 123.802288,280.810671 123.354286,279.968 C122.906283,279.125329 122.570287,278.256004 122.346286,277.36 C122.122285,276.463996 122.010286,275.504005 122.010286,274.48 C122.010286,273.05066 122.271616,271.738673 122.794286,270.544 C123.316955,269.349327 124.052948,268.320004 125.002286,267.456 C125.951624,266.591996 127.076946,265.914669 128.378286,265.424 C129.679625,264.933331 131.119611,264.688 132.698286,264.688 Z M116.442286,298.992 C116.442286,300.848009 116.810282,302.45866 117.546286,303.824 C118.282289,305.18934 119.220947,306.319996 120.362286,307.216 C121.503625,308.112004 122.762279,308.778664 124.138286,309.216 C125.514293,309.653336 126.831613,309.872 128.090286,309.872 C129.882295,309.872 131.556945,309.642669 133.114286,309.184 C134.671627,308.725331 136.116946,308.101337 137.450286,307.312 C138.783626,306.522663 139.99428,305.594672 141.082286,304.528 C142.170291,303.461328 143.130281,302.330673 143.962286,301.136 L127.802286,285.616 C126.180944,286.128003 124.676959,286.831996 123.290286,287.728 C121.903612,288.624004 120.703624,289.653328 119.690286,290.816 C118.676947,291.978672 117.882289,293.253326 117.306286,294.64 C116.730283,296.026674 116.442286,297.477326 116.442286,298.992 Z" id="&amp;" stroke="none" fill="#FFFFFF" fill-rule="evenodd"></path>
</svg>