<svg viewBox="90 95 139 148" version="1.1" xmlns="http://www.w3.org/2000/svg" xmlns:xlink="http://www.w3.org/1999/xlink">
    <g id="The-abstract" stroke="none" stroke-width="1" fill="none" fill-rule="evenodd" transform="translate(97.000000, 95.000000)">
        <polygon id="Line" fill="#FFFFFF" points="30.116195 140.98476 102.428246 2.32729163 97.9949162 0.0152401112 25.6828646 138.672708"></polygon>
        <polygon id="Line" fill="#FFFFFF" points="10.721799 3.20192337 55.3038448 83.597019 59.6765209 81.1722088 15.094475 0.777113217"></polygon>
        <polygon id="Line" fill="#FFFFFF" points="70.1363636 62.5258621 138.085859 62.5258621 138.085859 57.5258621 70.1363636 57.5258621"></polygon>
        <polygon id="Line" fill="#FFFFFF" points="15.6666667 105.198276 47.1111111 105.198276 47.1111111 100.198276 15.6666667 100.198276"></polygon>
        <path d="M31.7777778,97.0517241 C37.0231047,97.0517241 41.2777778,92.8075305 41.2777778,87.5689655 C41.2777778,82.3304005 37.0231047,78.0862069 31.7777778,78.0862069 C26.5324509,78.0862069 22.2777778,82.3304005 22.2777778,87.5689655 C22.2777778,92.8075305 26.5324509,97.0517241 31.7777778,97.0517241 Z M31.7777778,92.0517241 C29.2911182,92.0517241 27.2777778,90.0433427 27.2777778,87.5689655 C27.2777778,85.0945883 29.2911182,83.0862069 31.7777778,83.0862069 C34.2644374,83.0862069 36.2777778,85.0945883 36.2777778,87.5689655 C36.2777778,90.0433427 34.2644374,92.0517241 31.7777778,92.0517241 Z" id="Oval-2" fill="#FFFFFF"></path>
        <path d="M121.918417,60.3247053 C122.082726,62.1428047 122.166667,63.9840329 122.166667,65.8448276 C122.166667,99.3641806 94.9292774,126.534483 61.3333333,126.534483 C27.7373893,126.534483 0.5,99.3641806 0.5,65.8448276 C0.5,32.3254746 27.7373893,5.15517241 61.3333333,5.15517241 C73.0075809,5.15517241 83.9140383,8.43596342 93.1766486,14.1239045 L90.7267081,18.48804 C82.1898347,13.2053926 72.1188604,10.1551724 61.3333333,10.1551724 C30.4960566,10.1551724 5.5,35.0896623 5.5,65.8448276 C5.5,96.5999928 30.4960566,121.534483 61.3333333,121.534483 C92.1706101,121.534483 117.166667,96.5999928 117.166667,65.8448276 C117.166667,63.9809799 117.074864,62.1385097 116.895521,60.3216714 L121.918417,60.3247053 Z" id="Combined-Shape" fill="#FFFFFF"></path>
    </g>
</svg>