
<svg viewBox="90 95 139 148" version="1.1" xmlns="http://www.w3.org/2000/svg" xmlns:xlink="http://www.w3.org/1999/xlink">
    <g id="Logo" stroke="none" stroke-width="1" fill="none" fill-rule="evenodd" transform="translate(100.000000, 98.000000)">
        <path d="M58.3333333,123.534483 C91.9292774,123.534483 119.166667,96.3641806 119.166667,62.8448276 C119.166667,29.3254746 91.9292774,2.15517241 58.3333333,2.15517241 C24.7373893,2.15517241 -2.5,29.3254746 -2.5,62.8448276 C-2.5,96.3641806 24.7373893,123.534483 58.3333333,123.534483 Z M58.3333333,118.534483 C27.4960566,118.534483 2.5,93.5999928 2.5,62.8448276 C2.5,32.0896623 27.4960566,7.15517241 58.3333333,7.15517241 C89.1706101,7.15517241 114.166667,32.0896623 114.166667,62.8448276 C114.166667,93.5999928 89.1706101,118.534483 58.3333333,118.534483 Z" id="Oval" fill="#FFFFFF"></path>
        <polygon id="Line" fill="#FFFFFF" points="27.116195 137.98476 99.4282465 -0.672708365 94.9949162 -2.98475989 22.6828646 135.672708"></polygon>
        <polygon id="Line" fill="#FFFFFF" points="7.72179895 0.201923367 52.3038448 80.597019 56.6765209 78.1722088 12.094475 -2.22288678"></polygon>
        <polygon id="Line" fill="#FFFFFF" points="67.1363636 59.5258621 135.085859 59.5258621 135.085859 54.5258621 67.1363636 54.5258621"></polygon>
        <polygon id="Line" fill="#FFFFFF" points="12.6666667 102.198276 44.1111111 102.198276 44.1111111 97.1982759 12.6666667 97.1982759"></polygon>
        <path d="M28.7777778,94.0517241 C34.0231047,94.0517241 38.2777778,89.8075305 38.2777778,84.5689655 C38.2777778,79.3304005 34.0231047,75.0862069 28.7777778,75.0862069 C23.5324509,75.0862069 19.2777778,79.3304005 19.2777778,84.5689655 C19.2777778,89.8075305 23.5324509,94.0517241 28.7777778,94.0517241 Z M28.7777778,89.0517241 C26.2911182,89.0517241 24.2777778,87.0433427 24.2777778,84.5689655 C24.2777778,82.0945883 26.2911182,80.0862069 28.7777778,80.0862069 C31.2644374,80.0862069 33.2777778,82.0945883 33.2777778,84.5689655 C33.2777778,87.0433427 31.2644374,89.0517241 28.7777778,89.0517241 Z" id="Oval-2" fill="#FFFFFF"></path>
    </g>
</svg>